HIERARCHY
ROOT root
{
	OFFSET 0.000000 0.000000 0.000000
	CHANNELS 6 Xposition Yposition Zposition Zrotation Yrotation Xrotation
	JOINT lhip
	{
		OFFSET 0.058581 -0.082280 -0.017664
		CHANNELS 3 Zrotation Yrotation Xrotation
		JOINT lknee
		{
			OFFSET 0.043451 -0.386469 0.008037
			CHANNELS 3 Zrotation Yrotation Xrotation
			JOINT lankle
			{
				OFFSET -0.014790 -0.426874 -0.037428
				CHANNELS 3 Zrotation Yrotation Xrotation
				JOINT ltoe
				{
					OFFSET 0.041054 -0.060286 0.122042
					CHANNELS 3 Zrotation Yrotation Xrotation
					End Site
					{
						OFFSET 0.000000 0.000000 0.000000
					}
				}
			}
		}
	}
	JOINT rhip
	{
		OFFSET -0.060310 -0.090513 -0.013543
		CHANNELS 3 Zrotation Yrotation Xrotation
		JOINT rknee
		{
			OFFSET -0.043257 -0.383688 -0.004843
			CHANNELS 3 Zrotation Yrotation Xrotation
			JOINT rankle
			{
				OFFSET 0.019056 -0.420046 -0.034562
				CHANNELS 3 Zrotation Yrotation Xrotation
				JOINT rtoe
				{
					OFFSET -0.034840 -0.062106 0.130323
					CHANNELS 3 Zrotation Yrotation Xrotation
					End Site
					{
						OFFSET 0.000000 0.000000 0.000000
					}
				}
			}
		}
	}
	JOINT lowerback
	{
		OFFSET 0.004439 0.124404 -0.038385
		CHANNELS 3 Zrotation Yrotation Xrotation
		JOINT upperback
		{
			OFFSET 0.004488 0.137956 0.026820
			CHANNELS 3 Zrotation Yrotation Xrotation
			JOINT chest
			{
				OFFSET -0.002265 0.056032 0.002855
				CHANNELS 3 Zrotation Yrotation Xrotation
				JOINT lowerneck
				{
					OFFSET -0.013390 0.211636 -0.033468
					CHANNELS 3 Zrotation Yrotation Xrotation
					JOINT upperneck
					{
						OFFSET 0.010113 0.088937 0.050410
						CHANNELS 3 Zrotation Yrotation Xrotation
						End Site
						{
							OFFSET 0.000000 0.000000 0.000000
						}
					}
				}
				JOINT lclavicle
				{
					OFFSET 0.071702 0.114000 -0.018898
					CHANNELS 3 Zrotation Yrotation Xrotation
					JOINT lshoulder
					{
						OFFSET 0.122921 0.045205 -0.019046
						CHANNELS 3 Zrotation Yrotation Xrotation
						JOINT lelbow
						{
							OFFSET 0.255332 -0.015649 -0.022946
							CHANNELS 3 Zrotation Yrotation Xrotation
							JOINT lwrist
							{
								OFFSET 0.265709 0.012698 -0.007375
								CHANNELS 3 Zrotation Yrotation Xrotation
								End Site
								{
									OFFSET 0.000000 0.000000 0.000000
								}
							}
						}
					}
				}
				JOINT rclavicle
				{
					OFFSET -0.082954 0.112472 -0.023707
					CHANNELS 3 Zrotation Yrotation Xrotation
					JOINT rshoulder
					{
						OFFSET -0.113228 0.046853 -0.008472
						CHANNELS 3 Zrotation Yrotation Xrotation
						JOINT relbow
						{
							OFFSET -0.260127 -0.014369 -0.031269
							CHANNELS 3 Zrotation Yrotation Xrotation
							JOINT rwrist
							{
								OFFSET -0.269108 0.006794 -0.006027
								CHANNELS 3 Zrotation Yrotation Xrotation
								End Site
								{
									OFFSET 0.000000 0.000000 0.000000
								}
							}
						}
					}
				}
			}
		}
	}
}
MOTION
Frames: 8
Frame Time: 0.033333
0.430383 -0.236502 1.001980 176.924795 2.204331 86.091774 8.824539 -4.458226 -9.364322 -3.901278 -10.198913 16.930882 1.343651 5.721856 -11.113954 0.000000 -0.000000 0.000000 -8.352260 -5.690836 3.344593 -2.170639 -4.145035 18.086254 4.817255 -7.617810 -7.682767 0.000000 -0.000000 0.000000 -0.142404 8.605732 9.840122 0.771664 4.679754 7.500811 -0.050773 6.391950 -0.117731 6.659942 -9.076655 3.061702 3.938964 -10.226345 6.291796 -20.395029 -4.248432 3.994054 -54.362024 -1.337124 16.201646 -5.463653 -74.929053 28.233571 15.686914 -1.535816 -24.345177 19.207247 24.986013 6.098119 60.644613 38.680288 24.490165 -9.342253 68.047647 11.491736 0.894867 8.135429 0.717263 
0.441510 -0.241771 1.000067 174.786593 1.972843 85.826512 9.656126 -3.678442 -8.753078 -3.964230 -9.425074 16.573274 1.144157 6.268653 -10.929777 0.000000 -0.000000 0.000000 -8.223348 -5.576464 3.211713 -1.541794 -3.648975 17.390532 4.467296 -7.570880 -9.368597 0.000000 -0.000000 0.000000 -0.379322 8.154575 9.561503 0.796047 4.247940 7.744400 -0.194850 6.020628 0.035874 6.129155 -7.422005 2.577608 3.801575 -9.194543 6.257102 -20.833434 -4.037365 4.260970 -54.212940 -1.661870 15.892926 -6.583857 -74.249354 28.973150 15.845461 -1.234810 -23.924248 20.585702 23.147642 7.014550 59.981661 36.008820 23.250490 -9.684142 66.435396 10.788396 -0.146787 8.236340 0.871794 
0.453571 -0.247928 0.998367 172.649080 1.793949 85.639259 10.572192 -2.928103 -8.148970 -3.928747 -8.695451 16.078618 1.021674 6.716990 -10.748814 0.000000 -0.000000 0.000000 -8.047507 -5.555467 2.859215 -0.739991 -2.922270 17.010151 4.155455 -7.238227 -10.653003 0.000000 -0.000000 0.000000 -0.433731 7.687586 9.446829 0.771468 3.766969 7.970214 -0.368578 5.520992 0.115871 5.493166 -5.776421 1.966778 3.797234 -7.849475 5.994448 -21.421404 -3.687118 4.511511 -53.825380 -2.031597 15.445769 -7.801476 -73.653960 30.176591 16.057401 -1.285241 -23.965293 21.812758 21.332756 7.530868 59.195405 33.262072 21.931340 -10.189796 64.937068 10.046054 -0.850269 8.494049 1.474462 
0.466004 -0.254991 0.996450 170.451741 1.659828 85.596205 11.577074 -2.168596 -7.554193 -3.855752 -7.884173 15.396181 0.927869 7.221445 -10.464098 0.000000 -0.000000 0.000000 -7.827436 -5.385098 2.261500 0.191904 -2.026835 16.750482 3.791200 -6.749757 -11.831038 0.000000 -0.000000 0.000000 -0.413364 7.117146 9.205716 0.798603 3.345471 8.224465 -0.538979 5.177999 0.231890 4.773942 -4.324907 1.506020 3.709501 -6.294310 5.701385 -22.102688 -3.641166 4.214954 -53.425630 -2.295691 15.370900 -7.899163 -72.904184 29.652940 16.466270 -0.796851 -23.399480 22.962752 19.611290 7.923050 57.652997 30.466472 20.401229 -11.124333 63.909349 8.475652 -1.411707 8.345649 2.064079 
0.478958 -0.263476 0.995065 168.312241 1.546636 85.522385 12.557890 -1.430908 -6.903235 -3.611521 -6.982281 14.653365 0.587032 7.569648 -10.085257 0.000000 -0.000000 0.000000 -7.326624 -4.875736 1.550298 0.864596 -0.769891 16.733103 3.572123 -6.181028 -12.901829 0.000000 -0.000000 0.000000 -0.443575 6.444327 9.282123 0.906800 3.003298 8.526761 -0.655988 4.963182 0.398767 4.254369 -2.641571 0.539358 3.381372 -4.778210 5.461663 -22.758244 -3.749942 3.912308 -53.160890 -3.167110 15.027168 -7.300708 -71.656399 28.361726 17.447446 -1.129833 -21.871938 23.803455 17.355837 8.308950 55.764585 28.579164 18.541937 -11.591123 63.197159 7.599503 -2.094425 8.514263 3.236556 
0.491909 -0.273116 0.994470 166.122367 1.526818 85.578805 13.551729 -0.670761 -6.304598 -3.233027 -6.028927 13.857359 0.461053 8.107528 -9.574146 0.000000 -0.000000 0.000000 -6.438631 -4.183863 0.246254 1.320709 0.513326 17.471888 3.076856 -5.924320 -13.596798 0.000000 -0.000000 0.000000 -0.438640 5.521734 9.373908 1.107644 2.684475 8.752994 -0.648284 4.615169 0.443488 3.367546 -1.009706 0.010492 2.958194 -2.813945 5.143055 -23.509484 -3.858920 3.556213 -52.865842 -3.710707 14.813593 -6.715952 -70.828544 27.580873 17.322375 -0.995611 -20.919682 24.456261 15.682416 8.262919 53.373714 26.417805 16.855190 -12.168587 62.897745 6.534429 -1.979930 8.579876 4.087397 
0.504191 -0.282432 0.994177 164.213923 1.624749 85.507224 14.430838 -0.024269 -5.496585 -2.664471 -5.400863 12.923577 0.409901 8.546256 -8.913779 0.000000 -0.000000 0.000000 -5.509517 -3.379422 -1.261976 1.911998 1.440388 18.991751 2.635834 -5.734504 -14.032603 0.000000 -0.000000 0.000000 -0.211997 4.353343 9.626573 1.372898 2.215587 9.250641 -0.603922 4.017414 -0.006500 2.153459 0.509170 0.439718 2.479867 -0.509259 4.526493 -24.417519 -4.274644 3.491259 -52.457551 -3.872263 14.562790 -5.151032 -70.334469 25.634698 16.852458 -0.909085 -20.435935 24.597683 14.803778 8.701093 50.882437 24.332373 15.108251 -14.148194 62.528616 3.923901 -2.087141 8.932796 3.943618 
0.515204 -0.291067 0.993680 162.850294 1.710266 85.315320 14.977071 0.408154 -4.590138 -1.925845 -5.025548 11.859009 0.689823 8.758734 -8.294756 0.000000 -0.000000 0.000000 -4.751393 -2.362361 -2.527151 2.613811 2.052297 20.612004 2.394652 -5.632789 -14.499553 0.000000 -0.000000 0.000000 -0.077309 2.977473 10.174653 1.616595 1.476222 9.653859 -0.499705 3.390083 -0.295401 1.394848 2.060937 0.214789 1.894563 1.890976 3.954374 -24.906577 -4.647466 3.310969 -52.368299 -4.358528 14.072421 -3.977149 -69.842532 24.002013 15.711840 -1.903456 -19.206972 24.445417 13.748401 8.860733 48.307422 22.662967 13.213595 -16.511479 62.790480 0.857589 -1.362913 8.870457 4.788911 
